{
  "accessors": [
    {
      "bufferView": 1,
      "componentType": 5126,
      "count": 4290,
      "max": [
        0.05000000074505806,
        0.10000000149011612,
        1.3722090130841025e-09
      ],
      "min": [
        -0.05000000074505806,
        -2.218472584455955e-12,
        -0.01000000350177288
      ],
      "type": "VEC3"
    },
    {
      "bufferView": 1,
      "byteOffset": 51480,
      "componentType": 5126,
      "count": 4290,
      "max": [
        1.0,
        1.0,
        1.0
      ],
      "min": [
        -1.0,
        -1.0,
        -1.0
      ],
      "type": "VEC3"
    },
    {
      "bufferView": 0,
      "componentType": 5125,
      "count": 25728,
      "type": "SCALAR"
    },
    {
      "bufferView": 1,
      "byteOffset": 102960,
      "componentType": 5126,
      "count": 1998,
      "max": [
        0.04215426370501518,
        0.05457651987671852,
        0.00500000175088644
      ],
      "min": [
        -0.023266993463039398,
        0.007879091426730156,
        -6.44093181567662e-11
      ],
      "type": "VEC3"
    },
    {
      "bufferView": 1,
      "byteOffset": 126936,
      "componentType": 5126,
      "count": 1998,
      "max": [
        1.0,
        0.9999991655349731,
        0.0009999776957556605
      ],
      "min": [
        -1.0,
        -1.0,
        -1.0
      ],
      "type": "VEC3"
    },
    {
      "bufferView": 0,
      "byteOffset": 102912,
      "componentType": 5125,
      "count": 11184,
      "type": "SCALAR"
    }
  ],
  "asset": {
    "extras": {
      "author": "Alex human (https://sketchfab.com/alex-human)",
      "license": "CC-BY-4.0 (http://creativecommons.org/licenses/by/4.0/)",
      "source": "https://sketchfab.com/3d-models/javascript-logo-3d-model-792093fab435419ab70dae39d2891cb3",
      "title": "JavaScript Logo – 3D Model"
    },
    "generator": "Sketchfab-16.99.0",
    "version": "2.0"
  },
  "bufferViews": [
    {
      "buffer": 0,
      "byteLength": 147648,
      "name": "floatBufferViews",
      "target": 34963
    },
    {
      "buffer": 0,
      "byteLength": 150912,
      "byteOffset": 147648,
      "byteStride": 12,
      "name": "floatBufferViews",
      "target": 34962
    }
  ],
  "buffers": [
    {
      "byteLength": 298560,
      "uri": "scene.bin"
    }
  ],
  "materials": [
    {
      "doubleSided": true,
      "name": "yellow",
      "pbrMetallicRoughness": {
        "baseColorFactor": [
          0.871367,
          0.708376,
          0.0781874,
          1.0
        ],
        "roughnessFactor": 0.5
      }
    },
    {
      "doubleSided": true,
      "name": "black",
      "pbrMetallicRoughness": {
        "baseColorFactor": [
          0.031896,
          0.0331048,
          0.0295568,
          1.0
        ],
        "roughnessFactor": 0.5
      }
    }
  ],
  "meshes": [
    {
      "name": "Object_0",
      "primitives": [
        {
          "attributes": {
            "NORMAL": 1,
            "POSITION": 0
          },
          "indices": 2,
          "material": 0,
          "mode": 4
        }
      ]
    },
    {
      "name": "Object_1",
      "primitives": [
        {
          "attributes": {
            "NORMAL": 4,
            "POSITION": 3
          },
          "indices": 5,
          "material": 1,
          "mode": 4
        }
      ]
    }
  ],
  "nodes": [
    {
      "children": [
        1
      ],
      "matrix": [
        1.0,
        0.0,
        0.0,
        0.0,
        0.0,
        2.220446049250313e-16,
        -1.0,
        0.0,
        0.0,
        1.0,
        2.220446049250313e-16,
        0.0,
        0.0,
        0.0,
        0.0,
        1.0
      ],
      "name": "Sketchfab_model"
    },
    {
      "children": [
        2
      ],
      "name": "root"
    },
    {
      "children": [
        3
      ],
      "matrix": [
        1.0,
        0.0,
        0.0,
        0.0,
        0.0,
        2.220446049250313e-16,
        1.0,
        0.0,
        0.0,
        -1.0,
        2.220446049250313e-16,
        0.0,
        0.0,
        0.0,
        0.0,
        1.0
      ],
      "name": "GLTF_SceneRootNode"
    },
    {
      "children": [
        4,
        5
      ],
      "name": "js_0"
    },
    {
      "mesh": 0,
      "name": "Object_4"
    },
    {
      "mesh": 1,
      "name": "Object_5"
    }
  ],
  "scene": 0,
  "scenes": [
    {
      "name": "Sketchfab_Scene",
      "nodes": [
        0
      ]
    }
  ]
}
