{
  "accessors": [
    {
      "bufferView": 2,
      "componentType": 5126,
      "count": 65532,
      "max": [
        1.1284799575805664,
        1.9182000160217285,
        1.3157199621200562
      ],
      "min": [
        -2.7288599014282227,
        -3.110640048980713,
        -2.7063000202178955
      ],
      "type": "VEC3"
    },
    {
      "bufferView": 2,
      "byteOffset": 786384,
      "componentType": 5126,
      "count": 65532,
      "max": [
        0.9999997019767761,
        0.9999998211860657,
        0.9999851584434509
      ],
      "min": [
        -0.9999995827674866,
        -0.9999998211860657,
        -0.9999999403953552
      ],
      "type": "VEC3"
    },
    {
      "bufferView": 1,
      "componentType": 5126,
      "count": 65532,
      "max": [
        5.098549842834473,
        6.933539867401123
      ],
      "min": [
        -5.301080226898193,
        -3.908289909362793
      ],
      "type": "VEC2"
    },
    {
      "bufferView": 0,
      "componentType": 5125,
      "count": 380493,
      "type": "SCALAR"
    },
    {
      "bufferView": 2,
      "byteOffset": 1572768,
      "componentType": 5126,
      "count": 49161,
      "max": [
        2.7288599014282227,
        1.9173099994659424,
        1.3157199621200562
      ],
      "min": [
        -2.283639907836914,
        -3.0692999362945557,
        -2.7063000202178955
      ],
      "type": "VEC3"
    },
    {
      "bufferView": 2,
      "byteOffset": 2162700,
      "componentType": 5126,
      "count": 49161,
      "max": [
        0.999999463558197,
        0.9999999403953552,
        0.9993994235992432
      ],
      "min": [
        -0.9999997019767761,
        -0.9998040795326233,
        -0.9999999403953552
      ],
      "type": "VEC3"
    },
    {
      "bufferView": 1,
      "byteOffset": 524256,
      "componentType": 5126,
      "count": 49161,
      "max": [
        5.098549842834473,
        6.852389812469482
      ],
      "min": [
        -5.210730075836182,
        -4.056789875030518
      ],
      "type": "VEC2"
    },
    {
      "bufferView": 0,
      "byteOffset": 1521972,
      "componentType": 5125,
      "count": 282291,
      "type": "SCALAR"
    },
    {
      "bufferView": 2,
      "byteOffset": 2752632,
      "componentType": 5126,
      "count": 4488,
      "max": [
        1.2275199890136719,
        1.2696199417114258,
        -2.186880111694336
      ],
      "min": [
        -1.2275199890136719,
        -0.9869400262832642,
        -2.5695700645446777
      ],
      "type": "VEC3"
    },
    {
      "bufferView": 2,
      "byteOffset": 2806488,
      "componentType": 5126,
      "count": 4488,
      "max": [
        0.9999919533729553,
        0.061191365122795105,
        0.2347850352525711
      ],
      "min": [
        -0.9999919533729553,
        -0.9997972846031189,
        -0.6612921953201294
      ],
      "type": "VEC3"
    },
    {
      "bufferView": 1,
      "byteOffset": 917544,
      "componentType": 5126,
      "count": 4488,
      "max": [
        4.208769798278809,
        0.13041000068187714
      ],
      "min": [
        -0.7070199847221375,
        -1.6112500429153442
      ],
      "type": "VEC2"
    },
    {
      "bufferView": 0,
      "byteOffset": 2651136,
      "componentType": 5125,
      "count": 24576,
      "type": "SCALAR"
    },
    {
      "bufferView": 2,
      "byteOffset": 2860344,
      "componentType": 5126,
      "count": 9459,
      "max": [
        1.4669599533081055,
        0.5716800093650818,
        -0.04188999906182289
      ],
      "min": [
        0.08483000099658966,
        -0.2385600060224533,
        -0.23499000072479248
      ],
      "type": "VEC3"
    },
    {
      "bufferView": 2,
      "byteOffset": 2973852,
      "componentType": 5126,
      "count": 9459,
      "max": [
        0.377671480178833,
        0.7454515099525452,
        0.9982932209968567
      ],
      "min": [
        -0.9254657030105591,
        -0.9928528666496277,
        -0.9995003342628479
      ],
      "type": "VEC3"
    },
    {
      "bufferView": 0,
      "byteOffset": 2749440,
      "componentType": 5125,
      "count": 14256,
      "type": "SCALAR"
    },
    {
      "bufferView": 2,
      "byteOffset": 3087360,
      "componentType": 5126,
      "count": 65534,
      "max": [
        1.4688800573349,
        0.5771200060844421,
        -0.040119998157024384
      ],
      "min": [
        0.0804700031876564,
        -0.2419700026512146,
        -0.23654000461101532
      ],
      "type": "VEC3"
    },
    {
      "bufferView": 2,
      "byteOffset": 3873768,
      "componentType": 5126,
      "count": 65534,
      "max": [
        0.9846360087394714,
        0.9996005892753601,
        0.9985316395759583
      ],
      "min": [
        -0.9763011932373047,
        -0.999453604221344,
        -0.9986703395843506
      ],
      "type": "VEC3"
    },
    {
      "bufferView": 0,
      "byteOffset": 2806464,
      "componentType": 5125,
      "count": 99447,
      "type": "SCALAR"
    },
    {
      "bufferView": 2,
      "byteOffset": 4660176,
      "componentType": 5126,
      "count": 63517,
      "max": [
        1.4728100299835205,
        0.5682399868965149,
        -0.040119998157024384
      ],
      "min": [
        0.08504000306129456,
        -0.24446000158786774,
        -0.2321999967098236
      ],
      "type": "VEC3"
    },
    {
      "bufferView": 2,
      "byteOffset": 5422380,
      "componentType": 5126,
      "count": 63517,
      "max": [
        0.9810836315155029,
        0.3990916609764099,
        0.9982328414916992
      ],
      "min": [
        -0.9837340116500854,
        -0.9994678497314453,
        -0.9987147450447083
      ],
      "type": "VEC3"
    },
    {
      "bufferView": 0,
      "byteOffset": 3204252,
      "componentType": 5125,
      "count": 96129,
      "type": "SCALAR"
    },
    {
      "bufferView": 2,
      "byteOffset": 6184584,
      "componentType": 5126,
      "count": 4057,
      "max": [
        0.6980699896812439,
        1.3403300046920776,
        0.9757999777793884
      ],
      "min": [
        -0.5478399991989136,
        -3.9472200870513916,
        -0.9261900186538696
      ],
      "type": "VEC3"
    },
    {
      "bufferView": 2,
      "byteOffset": 6233268,
      "componentType": 5126,
      "count": 4057,
      "max": [
        0.9999198913574219,
        0.9993385672569275,
        0.9993056058883667
      ],
      "min": [
        -0.9999528527259827,
        -0.9992635846138,
        -0.9956005215644836
      ],
      "type": "VEC3"
    },
    {
      "bufferView": 0,
      "byteOffset": 3588768,
      "componentType": 5125,
      "count": 21312,
      "type": "SCALAR"
    },
    {
      "bufferView": 2,
      "byteOffset": 6281952,
      "componentType": 5126,
      "count": 3808,
      "max": [
        0.9808200001716614,
        1.0,
        1.0
      ],
      "min": [
        -114.40754699707031,
        -5.534359931945801,
        -3.645359992980957
      ],
      "type": "VEC3"
    },
    {
      "bufferView": 2,
      "byteOffset": 6327648,
      "componentType": 5126,
      "count": 3808,
      "max": [
        0.9981964230537415,
        0.9993964433670044,
        0.9995982050895691
      ],
      "min": [
        -0.9904383420944214,
        -0.9993966817855835,
        -0.9995982050895691
      ],
      "type": "VEC3"
    },
    {
      "bufferView": 0,
      "byteOffset": 3674016,
      "componentType": 5125,
      "count": 5520,
      "type": "SCALAR"
    },
    {
      "bufferView": 2,
      "byteOffset": 6373344,
      "componentType": 5126,
      "count": 160,
      "max": [
        0.952489972114563,
        0.7870799899101257,
        0.718940019607544
      ],
      "min": [
        -114.14269256591797,
        -4.982369899749756,
        -2.7691500186920166
      ],
      "type": "VEC3"
    },
    {
      "bufferView": 2,
      "byteOffset": 6375264,
      "componentType": 5126,
      "count": 160,
      "max": [
        0.9869300127029419,
        0.6372800469398499,
        0.6663176417350769
      ],
      "min": [
        -0.19099901616573334,
        -0.9244585633277893,
        -0.5403979420661926
      ],
      "type": "VEC3"
    },
    {
      "bufferView": 0,
      "byteOffset": 3696096,
      "componentType": 5125,
      "count": 240,
      "type": "SCALAR"
    }
  ],
  "asset": {
    "extras": {
      "author": "Aleksey Nemiro (https://sketchfab.com/alekseynemiro)",
      "license": "CC-BY-NC-4.0 (http://creativecommons.org/licenses/by-nc/4.0/)",
      "source": "https://sketchfab.com/3d-models/elephpant-c8dc1f9a7f2443c49a1c1fc9fb1b4542",
      "title": "elePHPant"
    },
    "generator": "Sketchfab-12.67.0",
    "version": "2.0"
  },
  "bufferViews": [
    {
      "buffer": 0,
      "byteLength": 3697056,
      "name": "floatBufferViews",
      "target": 34963
    },
    {
      "buffer": 0,
      "byteLength": 953448,
      "byteOffset": 3697056,
      "byteStride": 8,
      "name": "floatBufferViews",
      "target": 34962
    },
    {
      "buffer": 0,
      "byteLength": 6377184,
      "byteOffset": 4650504,
      "byteStride": 12,
      "name": "floatBufferViews",
      "target": 34962
    }
  ],
  "buffers": [
    {
      "byteLength": 11027688,
      "uri": "scene.bin"
    }
  ],
  "materials": [
    {
      "doubleSided": true,
      "name": "Body",
      "pbrMetallicRoughness": {
        "baseColorFactor": [
          0.14341594896977627,
          0.25306614446667935,
          0.5830405017641959,
          1.0
        ],
        "metallicFactor": 0.0,
        "roughnessFactor": 0.6
      }
    },
    {
      "doubleSided": true,
      "name": "Feet",
      "pbrMetallicRoughness": {
        "metallicFactor": 0.0,
        "roughnessFactor": 0.6
      }
    },
    {
      "doubleSided": true,
      "name": "Text",
      "pbrMetallicRoughness": {
        "baseColorFactor": [
          0.0,
          0.0,
          0.0,
          1.0
        ],
        "metallicFactor": 0.0,
        "roughnessFactor": 0.6
      }
    },
    {
      "doubleSided": true,
      "name": "TextBorder",
      "pbrMetallicRoughness": {
        "metallicFactor": 0.0,
        "roughnessFactor": 0.6
      }
    },
    {
      "doubleSided": true,
      "name": "material",
      "pbrMetallicRoughness": {
        "baseColorFactor": [
          0.0,
          0.0,
          0.0,
          1.0
        ],
        "metallicFactor": 0.0,
        "roughnessFactor": 0.6
      }
    },
    {
      "doubleSided": true,
      "name": "Spot",
      "pbrMetallicRoughness": {
        "metallicFactor": 0.0,
        "roughnessFactor": 0.6
      }
    }
  ],
  "meshes": [
    {
      "name": "Body_0",
      "primitives": [
        {
          "attributes": {
            "NORMAL": 1,
            "POSITION": 0,
            "TEXCOORD_0": 2
          },
          "indices": 3,
          "material": 0,
          "mode": 4
        }
      ]
    },
    {
      "name": "Body_0",
      "primitives": [
        {
          "attributes": {
            "NORMAL": 5,
            "POSITION": 4,
            "TEXCOORD_0": 6
          },
          "indices": 7,
          "material": 0,
          "mode": 4
        }
      ]
    },
    {
      "name": "Body_1",
      "primitives": [
        {
          "attributes": {
            "NORMAL": 9,
            "POSITION": 8,
            "TEXCOORD_0": 10
          },
          "indices": 11,
          "material": 1,
          "mode": 4
        }
      ]
    },
    {
      "name": "php_0",
      "primitives": [
        {
          "attributes": {
            "NORMAL": 13,
            "POSITION": 12
          },
          "indices": 14,
          "material": 2,
          "mode": 4
        }
      ]
    },
    {
      "name": "php-border_0",
      "primitives": [
        {
          "attributes": {
            "NORMAL": 16,
            "POSITION": 15
          },
          "indices": 17,
          "material": 3,
          "mode": 4
        }
      ]
    },
    {
      "name": "php-border_0",
      "primitives": [
        {
          "attributes": {
            "NORMAL": 19,
            "POSITION": 18
          },
          "indices": 20,
          "material": 3,
          "mode": 4
        }
      ]
    },
    {
      "name": "Tail_0",
      "primitives": [
        {
          "attributes": {
            "NORMAL": 22,
            "POSITION": 21
          },
          "indices": 23,
          "material": 0,
          "mode": 4
        }
      ]
    },
    {
      "name": "Eye_0",
      "primitives": [
        {
          "attributes": {
            "NORMAL": 25,
            "POSITION": 24
          },
          "indices": 26,
          "material": 4,
          "mode": 4
        }
      ]
    },
    {
      "name": "Eye_1",
      "primitives": [
        {
          "attributes": {
            "NORMAL": 28,
            "POSITION": 27
          },
          "indices": 29,
          "material": 5,
          "mode": 4
        }
      ]
    }
  ],
  "nodes": [
    {
      "children": [
        1
      ],
      "matrix": [
        7.058278560638428,
        0.0,
        0.0,
        0.0,
        0.0,
        1.5672526744477783e-15,
        -7.058278560638428,
        0.0,
        0.0,
        7.058278560638428,
        1.5672526744477783e-15,
        0.0,
        0.0,
        0.0,
        0.0,
        1.0
      ],
      "name": "Sketchfab_model"
    },
    {
      "children": [
        2
      ],
      "name": "Root"
    },
    {
      "children": [
        3,
        7,
        9,
        12,
        14
      ],
      "matrix": [
        0.35663,
        0.0,
        0.0,
        0.0,
        0.0,
        0.35663,
        0.0,
        0.0,
        0.0,
        0.0,
        0.35663,
        0.0,
        -0.11273000000000002,
        -0.007490000000000002,
        0.35565,
        1.0
      ],
      "name": "elePHPant"
    },
    {
      "children": [
        4,
        5,
        6
      ],
      "matrix": [
        0.3174200000000001,
        0.0,
        0.0,
        0.0,
        0.0,
        0.3174200000000001,
        0.0,
        0.0,
        0.0,
        0.0,
        0.3174200000000001,
        0.0,
        -0.004580000000000002,
        0.21237,
        -0.13791000000000003,
        1.0
      ],
      "name": "Body"
    },
    {
      "mesh": 0,
      "name": "Body_0"
    },
    {
      "mesh": 1,
      "name": "Body_0"
    },
    {
      "mesh": 2,
      "name": "Body_1"
    },
    {
      "children": [
        8
      ],
      "matrix": [
        0.0,
        0.22666000000000003,
        0.04206000000000001,
        0.0,
        -0.0,
        -0.04206000000000001,
        0.22666000000000003,
        0.0,
        0.23053,
        -0.0,
        0.0,
        0.0,
        0.3033800000000001,
        -0.048440000000000004,
        -0.09225000000000003,
        1.0
      ],
      "name": "php"
    },
    {
      "mesh": 3,
      "name": "php_0"
    },
    {
      "children": [
        10,
        11
      ],
      "matrix": [
        0.0,
        0.22666000000000003,
        0.04206000000000001,
        0.0,
        -0.0,
        -0.04206000000000001,
        0.22666000000000003,
        0.0,
        0.23053,
        -0.0,
        0.0,
        0.0,
        0.3033800000000001,
        -0.048440000000000004,
        -0.09225000000000003,
        1.0
      ],
      "name": "php-border"
    },
    {
      "mesh": 4,
      "name": "php-border_0"
    },
    {
      "mesh": 5,
      "name": "php-border_0"
    },
    {
      "children": [
        13
      ],
      "matrix": [
        0.04067000000000001,
        -0.0003600000000000001,
        0.0002500000000000001,
        0.0,
        0.0002400000000000001,
        -0.0011900000000000003,
        -0.04065000000000001,
        0.0,
        0.0012500000000000002,
        0.13895000000000002,
        -0.004060000000000001,
        0.0,
        -0.013520000000000003,
        0.6608800000000001,
        -0.04837000000000001,
        1.0
      ],
      "name": "Tail"
    },
    {
      "mesh": 6,
      "name": "Tail_0"
    },
    {
      "children": [
        15,
        16
      ],
      "matrix": [
        0.004130000000000001,
        -0.0013600000000000003,
        -0.0008300000000000002,
        0.0,
        0.010830000000000003,
        0.03268000000000001,
        0.00041000000000000015,
        0.0,
        0.005850000000000001,
        -0.0023500000000000005,
        0.03289000000000001,
        0.0,
        0.2542,
        -0.6016800000000001,
        -0.25087000000000004,
        1.0
      ],
      "name": "Eye"
    },
    {
      "mesh": 7,
      "name": "Eye_0"
    },
    {
      "mesh": 8,
      "name": "Eye_1"
    }
  ],
  "scene": 0,
  "scenes": [
    {
      "name": "Sketchfab_Scene",
      "nodes": [
        0
      ]
    }
  ]
}
